<svg xmlns="http://www.w3.org/2000/svg" viewBox="0 0 900 480" font-family="Inter, -apple-system, sans-serif" font-size="11">
  <defs>
    <style>
      .box { rx: 6; ry: 6; stroke-width: 1.5; }
      .mcu { fill: #e0f7fa; stroke: #00838f; }
      .sensor { fill: #fff3e0; stroke: #e65100; }
      .power { fill: #fce4ec; stroke: #c62828; }
      .ui { fill: #e8f5e9; stroke: #2e7d32; }
      .conn { fill: #f3e5f5; stroke: #6a1b9a; }
      .flash { fill: #e8eaf6; stroke: #283593; }
      .label { font-weight: 600; font-size: 11px; }
      .sublabel { font-size: 9px; fill: #666; }
      .bus { stroke-width: 1.5; fill: none; }
      .bus-i2c { stroke: #00838f; stroke-dasharray: 6,3; }
      .bus-spi { stroke: #283593; }
      .bus-uart { stroke: #e65100; stroke-dasharray: 3,3; }
      .bus-usb { stroke: #c62828; stroke-width: 2; }
      .bus-pwr { stroke: #c62828; stroke-width: 1; stroke-dasharray: 2,2; }
      .bus-pdm { stroke: #2e7d32; stroke-dasharray: 4,2; }
      .bus-gpio { stroke: #666; stroke-width: 1; }
      .title { font-size: 16px; font-weight: 700; fill: #004d5a; }
      .legend-text { font-size: 9px; fill: #444; }
    </style>
  </defs>

  <!-- Title -->
  <text x="450" y="24" text-anchor="middle" class="title">STeaMi — Schema bloc</text>

  <!-- ==================== MCU Applicatif (center-left) ==================== -->
  <rect x="250" y="80" width="200" height="100" class="box mcu"/>
  <text x="350" y="105" text-anchor="middle" class="label">STM32WB55RG</text>
  <text x="350" y="120" text-anchor="middle" class="sublabel">Cortex-M4 @ 64 MHz</text>
  <text x="350" y="133" text-anchor="middle" class="sublabel">1 Mo Flash / 256 Ko RAM</text>
  <text x="350" y="146" text-anchor="middle" class="sublabel">BLE 5.2 / OpenThread / ZigBee</text>
  <text x="350" y="168" text-anchor="middle" class="sublabel" fill="#00838f">FP6 — MCU applicatif</text>

  <!-- Antenna (meme ligne que FP13) -->
  <rect x="540" y="35" width="70" height="30" class="box conn"/>
  <text x="575" y="54" text-anchor="middle" class="label" font-size="9">Antenne 2.4G</text>
  <line x1="450" y1="90" x2="575" y2="90" class="bus" stroke="#00838f" stroke-width="1.5"/>
  <line x1="575" y1="90" x2="575" y2="65" class="bus" stroke="#00838f" stroke-width="1.5"/>

  <!-- ==================== MCU Interface (center-right) ==================== -->
  <rect x="560" y="200" width="200" height="90" class="box mcu"/>
  <text x="660" y="225" text-anchor="middle" class="label">STM32F103CBT6</text>
  <text x="660" y="240" text-anchor="middle" class="sublabel">Cortex-M3 @ 72 MHz</text>
  <text x="660" y="253" text-anchor="middle" class="sublabel">128 Ko Flash — DAPLink</text>
  <text x="660" y="278" text-anchor="middle" class="sublabel" fill="#00838f">FP14 — MCU interface</text>

  <!-- USB Connector -->
  <rect x="800" y="215" width="80" height="40" class="box conn"/>
  <text x="840" y="237" text-anchor="middle" class="label" font-size="9">micro-USB</text>
  <text x="840" y="249" text-anchor="middle" class="sublabel">HID/CDC/MSC/WebUSB</text>
  <line x1="760" y1="235" x2="800" y2="235" class="bus bus-usb"/>

  <!-- UART between MCUs -->
  <line x1="450" y1="160" x2="510" y2="160" class="bus bus-uart"/>
  <line x1="510" y1="160" x2="510" y2="240" class="bus bus-uart"/>
  <line x1="510" y1="240" x2="560" y2="240" class="bus bus-uart"/>
  <text x="515" y="198" class="legend-text" fill="#e65100">UART</text>

  <!-- ==================== Flash W25Q64 ==================== -->
  <rect x="590" y="320" width="140" height="50" class="box flash"/>
  <text x="660" y="345" text-anchor="middle" class="label">W25Q64</text>
  <text x="660" y="358" text-anchor="middle" class="sublabel">64 Mbit SPI Flash — FP15</text>
  <line x1="660" y1="290" x2="660" y2="320" class="bus bus-spi"/>
  <text x="665" y="310" class="legend-text" fill="#283593">SPI</text>

  <!-- ==================== I2C1 Bus (internal) ==================== -->
  <!-- Horizontal I2C1 bus line -->
  <line x1="100" y1="250" x2="500" y2="250" class="bus bus-i2c"/>
  <text x="300" y="245" text-anchor="middle" class="legend-text" fill="#00838f">I2C1 (interne)</text>

  <!-- MCU to I2C1 -->
  <line x1="350" y1="180" x2="350" y2="250" class="bus bus-i2c"/>

  <!-- F103 to I2C1 -->
  <line x1="560" y1="260" x2="500" y2="260" class="bus bus-i2c"/>
  <line x1="500" y1="250" x2="500" y2="260" class="bus bus-i2c"/>

  <!-- ==================== Capteurs (below I2C1 bus) ==================== -->
  <!-- VL53L1X -->
  <rect x="30" y="275" width="90" height="40" class="box sensor"/>
  <text x="75" y="295" text-anchor="middle" class="label" font-size="9">VL53L1X</text>
  <text x="75" y="307" text-anchor="middle" class="sublabel">Distance ToF</text>
  <line x1="75" y1="250" x2="75" y2="275" class="bus bus-i2c"/>

  <!-- ISM330DLC -->
  <rect x="130" y="275" width="90" height="40" class="box sensor"/>
  <text x="175" y="295" text-anchor="middle" class="label" font-size="9">ISM330DLC</text>
  <text x="175" y="307" text-anchor="middle" class="sublabel">Accel/Gyro 6 axes</text>
  <line x1="175" y1="250" x2="175" y2="275" class="bus bus-i2c"/>

  <!-- LIS2MDL -->
  <rect x="230" y="275" width="90" height="40" class="box sensor"/>
  <text x="275" y="295" text-anchor="middle" class="label" font-size="9">LIS2MDL</text>
  <text x="275" y="307" text-anchor="middle" class="sublabel">Magnetometre</text>
  <line x1="275" y1="250" x2="275" y2="275" class="bus bus-i2c"/>

  <!-- WSEN-PADS -->
  <rect x="30" y="330" width="90" height="40" class="box sensor"/>
  <text x="75" y="350" text-anchor="middle" class="label" font-size="9">WSEN-PADS</text>
  <text x="75" y="362" text-anchor="middle" class="sublabel">Pression</text>
  <line x1="75" y1="315" x2="75" y2="330" class="bus bus-i2c"/>

  <!-- WSEN-HIDS -->
  <rect x="130" y="330" width="90" height="40" class="box sensor"/>
  <text x="175" y="350" text-anchor="middle" class="label" font-size="9">WSEN-HIDS</text>
  <text x="175" y="362" text-anchor="middle" class="sublabel">Humidite/Temp</text>
  <line x1="175" y1="315" x2="175" y2="330" class="bus bus-i2c"/>

  <!-- APDS-9960 -->
  <rect x="230" y="330" width="90" height="40" class="box sensor"/>
  <text x="275" y="350" text-anchor="middle" class="label" font-size="9">APDS-9960</text>
  <text x="275" y="362" text-anchor="middle" class="sublabel">Lumiere/Geste</text>
  <line x1="275" y1="315" x2="275" y2="330" class="bus bus-i2c"/>

  <!-- BQ27441 -->
  <rect x="340" y="275" width="90" height="40" class="box power"/>
  <text x="385" y="295" text-anchor="middle" class="label" font-size="9">BQ27441</text>
  <text x="385" y="307" text-anchor="middle" class="sublabel">Jauge batterie</text>
  <line x1="385" y1="250" x2="385" y2="275" class="bus bus-i2c"/>

  <!-- MCP23009 -->
  <rect x="440" y="275" width="90" height="40" class="box conn"/>
  <text x="485" y="295" text-anchor="middle" class="label" font-size="9">MCP23009</text>
  <text x="485" y="307" text-anchor="middle" class="sublabel">8 GPIO — FP7</text>
  <line x1="485" y1="250" x2="485" y2="275" class="bus bus-i2c"/>

  <!-- FP12 label -->
  <text x="175" y="385" text-anchor="middle" class="sublabel" fill="#e65100">FP12 — Capteurs internes</text>

  <!-- ==================== Microphone PDM (au-dessus du WB55) ==================== -->
  <rect x="300" y="35" width="90" height="30" class="box sensor"/>
  <text x="345" y="51" text-anchor="middle" class="label" font-size="9">IMP34DT05</text>
  <text x="345" y="62" text-anchor="middle" class="sublabel">Micro PDM — FP5</text>
  <line x1="345" y1="65" x2="345" y2="80" class="bus bus-pdm"/>
  <text x="350" y="76" class="legend-text" fill="#2e7d32">PDM</text>

  <!-- ==================== Interface utilisateur (colonne gauche alignee) ==================== -->

  <!-- OLED -->
  <rect x="20" y="40" width="130" height="35" class="box ui"/>
  <text x="85" y="58" text-anchor="middle" class="label" font-size="10">OLED 128x128</text>
  <text x="85" y="70" text-anchor="middle" class="sublabel">SSD1327 — FP8</text>
  <line x1="150" y1="57" x2="300" y2="57" class="bus bus-spi"/>
  <line x1="300" y1="57" x2="300" y2="80" class="bus bus-spi"/>
  <text x="210" y="53" class="legend-text" fill="#283593">SPI1</text>

  <!-- LED RGB -->
  <rect x="20" y="80" width="130" height="25" class="box ui"/>
  <text x="85" y="96" text-anchor="middle" class="label" font-size="9">LED RGB — FP8</text>
  <line x1="150" y1="92" x2="250" y2="92" class="bus bus-gpio"/>
  <text x="185" y="88" class="legend-text" fill="#666">GPIO</text>

  <!-- Boutons -->
  <rect x="20" y="110" width="130" height="30" class="box ui"/>
  <text x="85" y="128" text-anchor="middle" class="label" font-size="9">Boutons — FP9</text>
  <line x1="150" y1="125" x2="250" y2="125" class="bus bus-gpio"/>

  <!-- Buzzer — aligne avec le bas du STM32WB55 (y=180) -->
  <rect x="20" y="148" width="130" height="28" class="box ui"/>
  <text x="85" y="166" text-anchor="middle" class="label" font-size="9">Buzzer — FP10</text>
  <line x1="150" y1="162" x2="250" y2="162" class="bus bus-gpio"/>

  <!-- ==================== Alimentation (aligne avec F103) ==================== -->
  <rect x="560" y="100" width="200" height="40" class="box power"/>
  <text x="660" y="118" text-anchor="middle" class="label" font-size="10">Alimentation — FP4</text>
  <text x="660" y="132" text-anchor="middle" class="sublabel">TPS63000 + BQ24075 + LiPo 1600mAh</text>

  <!-- Power line from FP4 down to F103 -->
  <line x1="660" y1="140" x2="660" y2="200" class="bus bus-pwr" stroke-dasharray="2,4"/>

  <!-- Power line from FP4 left to WB55 -->
  <line x1="560" y1="120" x2="450" y2="120" class="bus bus-pwr"/>
  <line x1="450" y1="120" x2="450" y2="130" class="bus bus-pwr"/>
  <text x="500" y="115" class="legend-text" fill="#c62828">3.3V</text>

  <!-- USB to power -->
  <line x1="840" y1="215" x2="840" y2="120" class="bus bus-pwr"/>
  <line x1="840" y1="120" x2="760" y2="120" class="bus bus-pwr"/>
  <text x="800" y="114" class="legend-text" fill="#c62828">5V USB</text>

  <!-- ==================== Connecteurs externes (au-dessus du WB55) ==================== -->
  <rect x="400" y="35" width="130" height="30" class="box conn"/>
  <text x="465" y="51" text-anchor="middle" class="label" font-size="9">Connecteurs — FP13</text>
  <text x="465" y="62" text-anchor="middle" class="sublabel">Edge, Qwiic, Jacdac, Pads</text>

  <!-- I2C3 + SPI2 from WB55 to connectors -->
  <line x1="420" y1="65" x2="420" y2="80" class="bus bus-i2c" stroke="#6a1b9a"/>
  <text x="425" y="76" class="legend-text" fill="#6a1b9a">I2C3 / SPI2</text>

  <!-- SWD (en dessous du micro-USB) -->
  <rect x="800" y="265" width="80" height="35" class="box conn"/>
  <text x="840" y="284" text-anchor="middle" class="label" font-size="9">SWD — FP11</text>
  <text x="840" y="295" text-anchor="middle" class="sublabel">JTAG debug</text>
  <line x1="760" y1="250" x2="790" y2="250" class="bus bus-gpio"/>
  <line x1="790" y1="250" x2="790" y2="282" class="bus bus-gpio"/>
  <line x1="790" y1="282" x2="800" y2="282" class="bus bus-gpio"/>

  <!-- ==================== Legend ==================== -->
  <rect x="20" y="405" width="860" height="65" rx="6" fill="#f9f9f9" stroke="#ddd"/>
  <text x="40" y="425" class="label" font-size="10">Legende</text>

  <line x1="40" y1="440" x2="70" y2="440" class="bus bus-i2c"/>
  <text x="75" y="444" class="legend-text">I2C</text>

  <line x1="120" y1="440" x2="150" y2="440" class="bus bus-spi"/>
  <text x="155" y="444" class="legend-text">SPI</text>

  <line x1="190" y1="440" x2="220" y2="440" class="bus bus-uart"/>
  <text x="225" y="444" class="legend-text">UART</text>

  <line x1="265" y1="440" x2="295" y2="440" class="bus bus-usb"/>
  <text x="300" y="444" class="legend-text">USB</text>

  <line x1="335" y1="440" x2="365" y2="440" class="bus bus-pdm"/>
  <text x="370" y="444" class="legend-text">PDM</text>

  <line x1="405" y1="440" x2="435" y2="440" class="bus bus-gpio"/>
  <text x="440" y="444" class="legend-text">GPIO</text>

  <line x1="480" y1="440" x2="510" y2="440" class="bus bus-pwr"/>
  <text x="515" y="444" class="legend-text">Alimentation</text>

  <rect x="590" y="432" width="16" height="12" class="box mcu"/>
  <text x="612" y="443" class="legend-text">MCU</text>

  <rect x="645" y="432" width="16" height="12" class="box sensor"/>
  <text x="667" y="443" class="legend-text">Capteur</text>

  <rect x="710" y="432" width="16" height="12" class="box ui"/>
  <text x="732" y="443" class="legend-text">Interface</text>

  <rect x="780" y="432" width="16" height="12" class="box power"/>
  <text x="802" y="443" class="legend-text">Alim</text>

  <rect x="835" y="432" width="16" height="12" class="box conn"/>
  <text x="857" y="443" class="legend-text">Conn.</text>
</svg>
